<svg width="960" height="280" viewBox="0 0 960 280" fill="none" xmlns="http://www.w3.org/2000/svg">
  <defs>
    <linearGradient id="bg" x1="0" y1="0" x2="960" y2="280" gradientUnits="userSpaceOnUse">
      <stop offset="0" stop-color="#0B1020"/>
      <stop offset="0.52" stop-color="#172554"/>
      <stop offset="1" stop-color="#312E81"/>
    </linearGradient>
    <linearGradient id="node" x1="158" y1="44" x2="322" y2="208" gradientUnits="userSpaceOnUse">
      <stop offset="0" stop-color="#67E8F9"/>
      <stop offset="0.5" stop-color="#A78BFA"/>
      <stop offset="1" stop-color="#F0ABFC"/>
    </linearGradient>
    <linearGradient id="text" x1="398" y1="82" x2="808" y2="182" gradientUnits="userSpaceOnUse">
      <stop offset="0" stop-color="#E0F2FE"/>
      <stop offset="1" stop-color="#F5D0FE"/>
    </linearGradient>
    <filter id="glow" x="-60" y="-60" width="1080" height="400" filterUnits="userSpaceOnUse" color-interpolation-filters="sRGB">
      <feGaussianBlur stdDeviation="10" result="blur"/>
      <feColorMatrix in="blur" type="matrix" values="0 0 0 0 0.4 0 0 0 0 0.8 0 0 0 0 1 0 0 0 0.5 0"/>
      <feBlend in="SourceGraphic" mode="screen"/>
    </filter>
  </defs>

  <rect width="960" height="280" rx="36" fill="url(#bg)"/>
  <path d="M54 224C168 136 256 120 388 164C520 208 646 180 884 58" stroke="#38BDF8" stroke-opacity="0.18" stroke-width="2"/>
  <path d="M58 76C184 136 288 152 430 112C572 72 704 94 898 188" stroke="#E879F9" stroke-opacity="0.16" stroke-width="2"/>

  <g filter="url(#glow)">
    <circle cx="214" cy="140" r="75" stroke="url(#node)" stroke-width="5"/>
    <circle cx="214" cy="140" r="26" fill="url(#node)" fill-opacity="0.92"/>
    <circle cx="132" cy="82" r="14" fill="#67E8F9"/>
    <circle cx="308" cy="75" r="12" fill="#C4B5FD"/>
    <circle cx="317" cy="197" r="15" fill="#F0ABFC"/>
    <circle cx="112" cy="190" r="11" fill="#BAE6FD"/>
    <path d="M132 82L214 140L308 75" stroke="#E0F2FE" stroke-opacity="0.68" stroke-width="3"/>
    <path d="M112 190L214 140L317 197" stroke="#F5D0FE" stroke-opacity="0.64" stroke-width="3"/>
    <path d="M132 82C182 54 247 50 308 75" stroke="#67E8F9" stroke-opacity="0.42" stroke-width="3"/>
    <path d="M112 190C170 238 253 237 317 197" stroke="#F0ABFC" stroke-opacity="0.42" stroke-width="3"/>
  </g>

  <text x="392" y="118" font-family="Inter, ui-sans-serif, system-ui, -apple-system, BlinkMacSystemFont, Segoe UI, sans-serif" font-size="52" font-weight="800" fill="url(#text)">Latent-GRPO</text>
  <text x="395" y="164" font-family="Inter, ui-sans-serif, system-ui, -apple-system, BlinkMacSystemFont, Segoe UI, sans-serif" font-size="24" font-weight="600" fill="#C7D2FE">RL for Vocabulary-Space Latent Reasoning</text>
  <text x="396" y="202" font-family="Inter, ui-sans-serif, system-ui, -apple-system, BlinkMacSystemFont, Segoe UI, sans-serif" font-size="18" font-weight="500" fill="#BAE6FD" fill-opacity="0.86">Latent Rollout - Gumbel Noise - GRPO Optimization</text>
</svg>
